{
  "accessors": [
    {
      "bufferView": 2,
      "componentType": 5126,
      "count": 1160,
      "max": [
        0.1873025894165039,
        0.06238393485546112,
        0.02593849040567875
      ],
      "min": [
        -0.5328524112701416,
        0.0017449903534725308,
        -0.025938499718904495
      ],
      "type": "VEC3"
    },
    {
      "bufferView": 2,
      "byteOffset": 13920,
      "componentType": 5126,
      "count": 1160,
      "max": [
        0.9946323037147522,
        1.0,
        1.0
      ],
      "min": [
        -0.9930523037910461,
        -1.0,
        -1.0
      ],
      "type": "VEC3"
    },
    {
      "bufferView": 3,
      "componentType": 5126,
      "count": 1160,
      "max": [
        0.9978381991386414,
        1.0,
        1.0,
        1.0
      ],
      "min": [
        -0.9979270696640015,
        -1.0,
        -1.0,
        1.0
      ],
      "type": "VEC4"
    },
    {
      "bufferView": 1,
      "componentType": 5126,
      "count": 1160,
      "max": [
        0.9737211465835571,
        0.9993417263031006
      ],
      "min": [
        0.0006582843489013612,
        0.0006582755013369024
      ],
      "type": "VEC2"
    },
    {
      "bufferView": 1,
      "byteOffset": 9280,
      "componentType": 5126,
      "count": 1160,
      "max": [
        0.9737211465835571,
        0.9993417263031006
      ],
      "min": [
        0.0006582843489013612,
        0.0006582755013369024
      ],
      "type": "VEC2"
    },
    {
      "bufferView": 1,
      "byteOffset": 18560,
      "componentType": 5126,
      "count": 1160,
      "max": [
        0.9737211465835571,
        0.9993417263031006
      ],
      "min": [
        0.0006582843489013612,
        0.0006582755013369024
      ],
      "type": "VEC2"
    },
    {
      "bufferView": 1,
      "byteOffset": 27840,
      "componentType": 5126,
      "count": 1160,
      "max": [
        0.9737211465835571,
        0.9993417263031006
      ],
      "min": [
        0.0006582843489013612,
        0.0006582755013369024
      ],
      "type": "VEC2"
    },
    {
      "bufferView": 0,
      "componentType": 5125,
      "count": 5064,
      "type": "SCALAR"
    },
    {
      "bufferView": 2,
      "byteOffset": 27840,
      "componentType": 5126,
      "count": 1112,
      "max": [
        0.18740001320838928,
        0.02670162357389927,
        0.028144245967268944
      ],
      "min": [
        -0.4859679937362671,
        -0.03207409381866455,
        -0.028144245967268944
      ],
      "type": "VEC3"
    },
    {
      "bufferView": 2,
      "byteOffset": 41184,
      "componentType": 5126,
      "count": 1112,
      "max": [
        0.9995443820953369,
        1.0,
        0.9999995827674866
      ],
      "min": [
        -1.0,
        -0.999985933303833,
        -0.9999995827674866
      ],
      "type": "VEC3"
    },
    {
      "bufferView": 3,
      "byteOffset": 18560,
      "componentType": 5126,
      "count": 1112,
      "max": [
        0.7993242144584656,
        0.9999886155128479,
        1.0,
        1.0
      ],
      "min": [
        -0.9988184571266174,
        -1.0,
        -1.0,
        1.0
      ],
      "type": "VEC4"
    },
    {
      "bufferView": 1,
      "byteOffset": 37120,
      "componentType": 5126,
      "count": 1112,
      "max": [
        0.9103801846504211,
        0.9638464450836182
      ],
      "min": [
        0.11991456151008606,
        0.0006582511705346406
      ],
      "type": "VEC2"
    },
    {
      "bufferView": 1,
      "byteOffset": 46016,
      "componentType": 5126,
      "count": 1112,
      "max": [
        0.9103801846504211,
        0.9638464450836182
      ],
      "min": [
        0.11991456151008606,
        0.0006582511705346406
      ],
      "type": "VEC2"
    },
    {
      "bufferView": 1,
      "byteOffset": 54912,
      "componentType": 5126,
      "count": 1112,
      "max": [
        0.9103801846504211,
        0.9638464450836182
      ],
      "min": [
        0.11991456151008606,
        0.0006582511705346406
      ],
      "type": "VEC2"
    },
    {
      "bufferView": 1,
      "byteOffset": 63808,
      "componentType": 5126,
      "count": 1112,
      "max": [
        0.9103801846504211,
        0.9638464450836182
      ],
      "min": [
        0.11991456151008606,
        0.0006582511705346406
      ],
      "type": "VEC2"
    },
    {
      "bufferView": 0,
      "byteOffset": 20256,
      "componentType": 5125,
      "count": 5310,
      "type": "SCALAR"
    },
    {
      "bufferView": 2,
      "byteOffset": 54528,
      "componentType": 5126,
      "count": 380,
      "max": [
        -0.3677443265914917,
        0.04947401583194733,
        0.027952617034316063
      ],
      "min": [
        -0.38486072421073914,
        -0.021221226081252098,
        -0.027952617034316063
      ],
      "type": "VEC3"
    },
    {
      "bufferView": 2,
      "byteOffset": 59088,
      "componentType": 5126,
      "count": 380,
      "max": [
        0.9999288320541382,
        0.976502537727356,
        0.9789252877235413
      ],
      "min": [
        -0.9999287128448486,
        -0.9811642169952393,
        -0.9782432317733765
      ],
      "type": "VEC3"
    },
    {
      "bufferView": 3,
      "byteOffset": 36352,
      "componentType": 5126,
      "count": 380,
      "max": [
        0.9882788062095642,
        0.9999685287475586,
        0.7152887582778931,
        1.0
      ],
      "min": [
        -0.9860451221466064,
        -0.9999872446060181,
        -0.9984737634658813,
        1.0
      ],
      "type": "VEC4"
    },
    {
      "bufferView": 1,
      "byteOffset": 72704,
      "componentType": 5126,
      "count": 380,
      "max": [
        0.9660981893539429,
        0.9712824821472168
      ],
      "min": [
        0.3277760148048401,
        0.0006582736968994141
      ],
      "type": "VEC2"
    },
    {
      "bufferView": 1,
      "byteOffset": 75744,
      "componentType": 5126,
      "count": 380,
      "max": [
        0.9660981893539429,
        0.9712824821472168
      ],
      "min": [
        0.3277760148048401,
        0.0006582736968994141
      ],
      "type": "VEC2"
    },
    {
      "bufferView": 1,
      "byteOffset": 78784,
      "componentType": 5126,
      "count": 380,
      "max": [
        0.9660981893539429,
        0.9712824821472168
      ],
      "min": [
        0.3277760148048401,
        0.0006582736968994141
      ],
      "type": "VEC2"
    },
    {
      "bufferView": 1,
      "byteOffset": 81824,
      "componentType": 5126,
      "count": 380,
      "max": [
        0.9660981893539429,
        0.9712824821472168
      ],
      "min": [
        0.3277760148048401,
        0.0006582736968994141
      ],
      "type": "VEC2"
    },
    {
      "bufferView": 0,
      "byteOffset": 41496,
      "componentType": 5125,
      "count": 1428,
      "type": "SCALAR"
    },
    {
      "bufferView": 2,
      "byteOffset": 63648,
      "componentType": 5126,
      "count": 190,
      "max": [
        0.009540939703583717,
        0.05297373980283737,
        0.02438395656645298
      ],
      "min": [
        -0.009540939703583717,
        -0.02583456225693226,
        -0.0275246724486351
      ],
      "type": "VEC3"
    },
    {
      "bufferView": 2,
      "byteOffset": 65928,
      "componentType": 5126,
      "count": 190,
      "max": [
        0.9983832836151123,
        0.9892724752426147,
        0.9374063611030579
      ],
      "min": [
        -0.9983832836151123,
        -0.9892724752426147,
        -0.9886420369148254
      ],
      "type": "VEC3"
    },
    {
      "bufferView": 3,
      "byteOffset": 42432,
      "componentType": 5126,
      "count": 190,
      "max": [
        0.9999650716781616,
        0.930374801158905,
        0.9994972348213196,
        1.0
      ],
      "min": [
        -0.998465895652771,
        -0.8824436664581299,
        -0.9994972348213196,
        1.0
      ],
      "type": "VEC4"
    },
    {
      "bufferView": 1,
      "byteOffset": 84864,
      "componentType": 5126,
      "count": 190,
      "max": [
        0.960011899471283,
        0.9205370545387268
      ],
      "min": [
        0.5404225587844849,
        0.08880620449781418
      ],
      "type": "VEC2"
    },
    {
      "bufferView": 1,
      "byteOffset": 86384,
      "componentType": 5126,
      "count": 190,
      "max": [
        0.960011899471283,
        0.9205370545387268
      ],
      "min": [
        0.5404225587844849,
        0.08880620449781418
      ],
      "type": "VEC2"
    },
    {
      "bufferView": 1,
      "byteOffset": 87904,
      "componentType": 5126,
      "count": 190,
      "max": [
        0.960011899471283,
        0.9205370545387268
      ],
      "min": [
        0.5404225587844849,
        0.08880620449781418
      ],
      "type": "VEC2"
    },
    {
      "bufferView": 1,
      "byteOffset": 89424,
      "componentType": 5126,
      "count": 190,
      "max": [
        0.960011899471283,
        0.9205370545387268
      ],
      "min": [
        0.5404225587844849,
        0.08880620449781418
      ],
      "type": "VEC2"
    },
    {
      "bufferView": 0,
      "byteOffset": 47208,
      "componentType": 5125,
      "count": 768,
      "type": "SCALAR"
    },
    {
      "bufferView": 2,
      "byteOffset": 68208,
      "componentType": 5126,
      "count": 324,
      "max": [
        0.012681611813604832,
        0.013248560950160027,
        0.006742614321410656
      ],
      "min": [
        -0.10088075697422028,
        -0.013248560950160027,
        -0.002750949701294303
      ],
      "type": "VEC3"
    },
    {
      "bufferView": 2,
      "byteOffset": 72096,
      "componentType": 5126,
      "count": 324,
      "max": [
        0.9999999403953552,
        1.0,
        0.9714409112930298
      ],
      "min": [
        -1.0,
        -1.0,
        -1.0
      ],
      "type": "VEC3"
    },
    {
      "bufferView": 3,
      "byteOffset": 45472,
      "componentType": 5126,
      "count": 324,
      "max": [
        0.9772058129310608,
        0.9999862313270569,
        1.0,
        1.0
      ],
      "min": [
        -0.9687979221343994,
        -0.875951886177063,
        -0.9999609589576721,
        1.0
      ],
      "type": "VEC4"
    },
    {
      "bufferView": 1,
      "byteOffset": 90944,
      "componentType": 5126,
      "count": 324,
      "max": [
        0.9554475545883179,
        0.9577580690383911
      ],
      "min": [
        0.4812750816345215,
        0.0006582790520042181
      ],
      "type": "VEC2"
    },
    {
      "bufferView": 1,
      "byteOffset": 93536,
      "componentType": 5126,
      "count": 324,
      "max": [
        0.9554475545883179,
        0.9577580690383911
      ],
      "min": [
        0.4812750816345215,
        0.0006582790520042181
      ],
      "type": "VEC2"
    },
    {
      "bufferView": 1,
      "byteOffset": 96128,
      "componentType": 5126,
      "count": 324,
      "max": [
        0.9554475545883179,
        0.9577580690383911
      ],
      "min": [
        0.4812750816345215,
        0.0006582790520042181
      ],
      "type": "VEC2"
    },
    {
      "bufferView": 1,
      "byteOffset": 98720,
      "componentType": 5126,
      "count": 324,
      "max": [
        0.9554475545883179,
        0.9577580690383911
      ],
      "min": [
        0.4812750816345215,
        0.0006582790520042181
      ],
      "type": "VEC2"
    },
    {
      "bufferView": 0,
      "byteOffset": 50280,
      "componentType": 5125,
      "count": 1356,
      "type": "SCALAR"
    },
    {
      "bufferView": 2,
      "byteOffset": 75984,
      "componentType": 5126,
      "count": 428,
      "max": [
        0.3087192475795746,
        0.05291513726115227,
        0.02425283007323742
      ],
      "min": [
        -0.009491179138422012,
        -0.0642862468957901,
        -0.02425283007323742
      ],
      "type": "VEC3"
    },
    {
      "bufferView": 2,
      "byteOffset": 81120,
      "componentType": 5126,
      "count": 428,
      "max": [
        0.9795361757278442,
        0.9963433146476746,
        0.9972317218780518
      ],
      "min": [
        -0.9980059862136841,
        -0.9889407157897949,
        -0.9972317814826965
      ],
      "type": "VEC3"
    },
    {
      "bufferView": 3,
      "byteOffset": 50656,
      "componentType": 5126,
      "count": 428,
      "max": [
        0.9421353936195374,
        0.991495668888092,
        0.9999381899833679,
        1.0
      ],
      "min": [
        -0.9409825801849365,
        -0.9955559372901917,
        -0.9957325458526611,
        1.0
      ],
      "type": "VEC4"
    },
    {
      "bufferView": 1,
      "byteOffset": 101312,
      "componentType": 5126,
      "count": 428,
      "max": [
        0.9946045279502869,
        0.9673064351081848
      ],
      "min": [
        0.5591455101966858,
        0.0006582748028449714
      ],
      "type": "VEC2"
    },
    {
      "bufferView": 1,
      "byteOffset": 104736,
      "componentType": 5126,
      "count": 428,
      "max": [
        0.9946045279502869,
        0.9673064351081848
      ],
      "min": [
        0.5591455101966858,
        0.0006582748028449714
      ],
      "type": "VEC2"
    },
    {
      "bufferView": 1,
      "byteOffset": 108160,
      "componentType": 5126,
      "count": 428,
      "max": [
        0.9946045279502869,
        0.9673064351081848
      ],
      "min": [
        0.5591455101966858,
        0.0006582748028449714
      ],
      "type": "VEC2"
    },
    {
      "bufferView": 1,
      "byteOffset": 111584,
      "componentType": 5126,
      "count": 428,
      "max": [
        0.9946045279502869,
        0.9673064351081848
      ],
      "min": [
        0.5591455101966858,
        0.0006582748028449714
      ],
      "type": "VEC2"
    },
    {
      "bufferView": 0,
      "byteOffset": 55704,
      "componentType": 5125,
      "count": 1926,
      "type": "SCALAR"
    },
    {
      "bufferView": 2,
      "byteOffset": 86256,
      "componentType": 5126,
      "count": 1545,
      "max": [
        0.06836695224046707,
        0.011824659071862698,
        0.008028807118535042
      ],
      "min": [
        -0.006678170990198851,
        -0.011824660934507847,
        -0.016076745465397835
      ],
      "type": "VEC3"
    },
    {
      "bufferView": 2,
      "byteOffset": 104796,
      "componentType": 5126,
      "count": 1545,
      "max": [
        0.9999299049377441,
        1.0,
        1.0
      ],
      "min": [
        -1.0,
        -1.0,
        -0.999850332736969
      ],
      "type": "VEC3"
    },
    {
      "bufferView": 3,
      "byteOffset": 57504,
      "componentType": 5126,
      "count": 1545,
      "max": [
        0.9907227158546448,
        0.9999780058860779,
        0.9992458820343018,
        1.0
      ],
      "min": [
        -0.9275131821632385,
        -1.0,
        -0.9993786215782166,
        1.0
      ],
      "type": "VEC4"
    },
    {
      "bufferView": 1,
      "byteOffset": 115008,
      "componentType": 5126,
      "count": 1545,
      "max": [
        0.973508358001709,
        0.9617294669151306
      ],
      "min": [
        0.3277760148048401,
        0.08880620449781418
      ],
      "type": "VEC2"
    },
    {
      "bufferView": 1,
      "byteOffset": 127368,
      "componentType": 5126,
      "count": 1545,
      "max": [
        0.973508358001709,
        0.9617294669151306
      ],
      "min": [
        0.3277760148048401,
        0.08880620449781418
      ],
      "type": "VEC2"
    },
    {
      "bufferView": 1,
      "byteOffset": 139728,
      "componentType": 5126,
      "count": 1545,
      "max": [
        0.973508358001709,
        0.9617294669151306
      ],
      "min": [
        0.3277760148048401,
        0.08880620449781418
      ],
      "type": "VEC2"
    },
    {
      "bufferView": 1,
      "byteOffset": 152088,
      "componentType": 5126,
      "count": 1545,
      "max": [
        0.973508358001709,
        0.9617294669151306
      ],
      "min": [
        0.3277760148048401,
        0.08880620449781418
      ],
      "type": "VEC2"
    },
    {
      "bufferView": 0,
      "byteOffset": 63408,
      "componentType": 5125,
      "count": 6846,
      "type": "SCALAR"
    },
    {
      "bufferView": 2,
      "byteOffset": 123336,
      "componentType": 5126,
      "count": 838,
      "max": [
        0.04570135474205017,
        0.01423240453004837,
        0.011305793188512325
      ],
      "min": [
        -0.008838295936584473,
        -0.014040825888514519,
        -0.010925905779004097
      ],
      "type": "VEC3"
    },
    {
      "bufferView": 2,
      "byteOffset": 133392,
      "componentType": 5126,
      "count": 838,
      "max": [
        0.9918142557144165,
        1.0,
        0.9910616278648376
      ],
      "min": [
        -0.9918570518493652,
        -1.0,
        -0.9930810928344727
      ],
      "type": "VEC3"
    },
    {
      "bufferView": 3,
      "byteOffset": 82224,
      "componentType": 5126,
      "count": 838,
      "max": [
        0.954069972038269,
        0.99991375207901,
        0.9893858432769775,
        1.0
      ],
      "min": [
        -0.9697531461715698,
        -0.9851511120796204,
        -1.0,
        1.0
      ],
      "type": "VEC4"
    },
    {
      "bufferView": 1,
      "byteOffset": 164448,
      "componentType": 5126,
      "count": 838,
      "max": [
        0.9705195426940918,
        0.9719358086585999
      ],
      "min": [
        0.16782107949256897,
        0.16874803602695465
      ],
      "type": "VEC2"
    },
    {
      "bufferView": 1,
      "byteOffset": 171152,
      "componentType": 5126,
      "count": 838,
      "max": [
        0.9705195426940918,
        0.9719358086585999
      ],
      "min": [
        0.16782107949256897,
        0.16874803602695465
      ],
      "type": "VEC2"
    },
    {
      "bufferView": 1,
      "byteOffset": 177856,
      "componentType": 5126,
      "count": 838,
      "max": [
        0.9705195426940918,
        0.9719358086585999
      ],
      "min": [
        0.16782107949256897,
        0.16874803602695465
      ],
      "type": "VEC2"
    },
    {
      "bufferView": 1,
      "byteOffset": 184560,
      "componentType": 5126,
      "count": 838,
      "max": [
        0.9705195426940918,
        0.9719358086585999
      ],
      "min": [
        0.16782107949256897,
        0.16874803602695465
      ],
      "type": "VEC2"
    },
    {
      "bufferView": 0,
      "byteOffset": 90792,
      "componentType": 5125,
      "count": 3690,
      "type": "SCALAR"
    },
    {
      "bufferView": 2,
      "byteOffset": 143448,
      "componentType": 5126,
      "count": 140,
      "max": [
        0.2450276017189026,
        0.007617918774485588,
        0.005434098187834024
      ],
      "min": [
        -0.007680609356611967,
        -0.028276538476347923,
        -0.0011897634249180555
      ],
      "type": "VEC3"
    },
    {
      "bufferView": 2,
      "byteOffset": 145128,
      "componentType": 5126,
      "count": 140,
      "max": [
        0.9913041591644287,
        0.9999727010726929,
        0.2552470862865448
      ],
      "min": [
        -0.9785389304161072,
        -0.9999145269393921,
        -0.9822409749031067
      ],
      "type": "VEC3"
    },
    {
      "bufferView": 3,
      "byteOffset": 95632,
      "componentType": 5126,
      "count": 140,
      "max": [
        0.7047773003578186,
        0.9981745481491089,
        0.9998281002044678,
        1.0
      ],
      "min": [
        -0.6891342997550964,
        -0.00899855699390173,
        -0.9999530911445618,
        1.0
      ],
      "type": "VEC4"
    },
    {
      "bufferView": 1,
      "byteOffset": 191264,
      "componentType": 5126,
      "count": 140,
      "max": [
        0.6151660084724426,
        0.797985315322876
      ],
      "min": [
        0.5642848610877991,
        0.4435229003429413
      ],
      "type": "VEC2"
    },
    {
      "bufferView": 1,
      "byteOffset": 192384,
      "componentType": 5126,
      "count": 140,
      "max": [
        0.6151660084724426,
        0.797985315322876
      ],
      "min": [
        0.5642848610877991,
        0.4435229003429413
      ],
      "type": "VEC2"
    },
    {
      "bufferView": 1,
      "byteOffset": 193504,
      "componentType": 5126,
      "count": 140,
      "max": [
        0.6151660084724426,
        0.797985315322876
      ],
      "min": [
        0.5642848610877991,
        0.4435229003429413
      ],
      "type": "VEC2"
    },
    {
      "bufferView": 1,
      "byteOffset": 194624,
      "componentType": 5126,
      "count": 140,
      "max": [
        0.6151660084724426,
        0.797985315322876
      ],
      "min": [
        0.5642848610877991,
        0.4435229003429413
      ],
      "type": "VEC2"
    },
    {
      "bufferView": 0,
      "byteOffset": 105552,
      "componentType": 5125,
      "count": 726,
      "type": "SCALAR"
    },
    {
      "bufferView": 2,
      "byteOffset": 146808,
      "componentType": 5126,
      "count": 256,
      "max": [
        0.003407516283914447,
        0.003512705909088254,
        0.005411107558757067
      ],
      "min": [
        -0.03083273209631443,
        -0.003512705909088254,
        -0.003583319718018174
      ],
      "type": "VEC3"
    },
    {
      "bufferView": 2,
      "byteOffset": 149880,
      "componentType": 5126,
      "count": 256,
      "max": [
        0.9874348640441895,
        1.0,
        -0.0
      ],
      "min": [
        -0.9691201448440552,
        -1.0,
        -0.9916273951530457
      ],
      "type": "VEC3"
    },
    {
      "bufferView": 3,
      "byteOffset": 97872,
      "componentType": 5126,
      "count": 256,
      "max": [
        0.9982006549835205,
        0.6274169087409973,
        0.954191267490387,
        1.0
      ],
      "min": [
        -0.8206150531768799,
        -0.9964249730110168,
        -1.0,
        1.0
      ],
      "type": "VEC4"
    },
    {
      "bufferView": 1,
      "byteOffset": 195744,
      "componentType": 5126,
      "count": 256,
      "max": [
        0.8746380805969238,
        0.9597103595733643
      ],
      "min": [
        0.5498199462890625,
        0.659193217754364
      ],
      "type": "VEC2"
    },
    {
      "bufferView": 1,
      "byteOffset": 197792,
      "componentType": 5126,
      "count": 256,
      "max": [
        0.8746380805969238,
        0.9597103595733643
      ],
      "min": [
        0.5498199462890625,
        0.659193217754364
      ],
      "type": "VEC2"
    },
    {
      "bufferView": 1,
      "byteOffset": 199840,
      "componentType": 5126,
      "count": 256,
      "max": [
        0.8746380805969238,
        0.9597103595733643
      ],
      "min": [
        0.5498199462890625,
        0.659193217754364
      ],
      "type": "VEC2"
    },
    {
      "bufferView": 1,
      "byteOffset": 201888,
      "componentType": 5126,
      "count": 256,
      "max": [
        0.8746380805969238,
        0.9597103595733643
      ],
      "min": [
        0.5498199462890625,
        0.659193217754364
      ],
      "type": "VEC2"
    },
    {
      "bufferView": 0,
      "byteOffset": 108456,
      "componentType": 5125,
      "count": 1158,
      "type": "SCALAR"
    },
    {
      "bufferView": 2,
      "byteOffset": 152952,
      "componentType": 5126,
      "count": 48,
      "max": [
        0.003908684942871332,
        0.003908684942871332,
        2.091248146873781e-10
      ],
      "min": [
        -0.003908684942871332,
        -0.003908684942871332,
        -0.0016249482287093997
      ],
      "type": "VEC3"
    },
    {
      "bufferView": 2,
      "byteOffset": 153528,
      "componentType": 5126,
      "count": 48,
      "max": [
        0.8990697860717773,
        0.8990698456764221,
        -0.4093024432659149
      ],
      "min": [
        -0.8990698456764221,
        -0.8990699052810669,
        -0.9859956502914429
      ],
      "type": "VEC3"
    },
    {
      "bufferView": 3,
      "byteOffset": 101968,
      "componentType": 5126,
      "count": 48,
      "max": [
        -0.01550721563398838,
        0.9376804828643799,
        0.8927888870239258,
        1.0
      ],
      "min": [
        -0.5894904136657715,
        0.32985547184944153,
        -0.8892995119094849,
        1.0
      ],
      "type": "VEC4"
    },
    {
      "bufferView": 1,
      "byteOffset": 203936,
      "componentType": 5126,
      "count": 48,
      "max": [
        0.16650451719760895,
        0.9679262638092041
      ],
      "min": [
        0.1543005406856537,
        0.9556962847709656
      ],
      "type": "VEC2"
    },
    {
      "bufferView": 1,
      "byteOffset": 204320,
      "componentType": 5126,
      "count": 48,
      "max": [
        0.16650451719760895,
        0.9679262638092041
      ],
      "min": [
        0.1543005406856537,
        0.9556962847709656
      ],
      "type": "VEC2"
    },
    {
      "bufferView": 1,
      "byteOffset": 204704,
      "componentType": 5126,
      "count": 48,
      "max": [
        0.16650451719760895,
        0.9679262638092041
      ],
      "min": [
        0.1543005406856537,
        0.9556962847709656
      ],
      "type": "VEC2"
    },
    {
      "bufferView": 1,
      "byteOffset": 205088,
      "componentType": 5126,
      "count": 48,
      "max": [
        0.16650451719760895,
        0.9679262638092041
      ],
      "min": [
        0.1543005406856537,
        0.9556962847709656
      ],
      "type": "VEC2"
    },
    {
      "bufferView": 0,
      "byteOffset": 113088,
      "componentType": 5125,
      "count": 246,
      "type": "SCALAR"
    },
    {
      "bufferView": 2,
      "byteOffset": 154104,
      "componentType": 5126,
      "count": 48,
      "max": [
        0.004432053305208683,
        0.004432053305208683,
        2.3712642960305175e-10
      ],
      "min": [
        -0.004432053305208683,
        -0.004432053305208683,
        -0.0018425269518047571
      ],
      "type": "VEC3"
    },
    {
      "bufferView": 2,
      "byteOffset": 154680,
      "componentType": 5126,
      "count": 48,
      "max": [
        0.8990697860717773,
        0.8990699052810669,
        -0.4093022048473358
      ],
      "min": [
        -0.8990699052810669,
        -0.8990699052810669,
        -0.9859956502914429
      ],
      "type": "VEC3"
    },
    {
      "bufferView": 3,
      "byteOffset": 102736,
      "componentType": 5126,
      "count": 48,
      "max": [
        0.5907877683639526,
        -0.33134695887565613,
        0.89090496301651,
        1.0
      ],
      "min": [
        0.011524700559675694,
        -0.9416991472244263,
        -0.8839508891105652,
        1.0
      ],
      "type": "VEC4"
    },
    {
      "bufferView": 1,
      "byteOffset": 205472,
      "componentType": 5126,
      "count": 48,
      "max": [
        0.9693626761436462,
        0.2876436114311218
      ],
      "min": [
        0.9555151462554932,
        0.2737376391887665
      ],
      "type": "VEC2"
    },
    {
      "bufferView": 1,
      "byteOffset": 205856,
      "componentType": 5126,
      "count": 48,
      "max": [
        0.9693626761436462,
        0.2876436114311218
      ],
      "min": [
        0.9555151462554932,
        0.2737376391887665
      ],
      "type": "VEC2"
    },
    {
      "bufferView": 1,
      "byteOffset": 206240,
      "componentType": 5126,
      "count": 48,
      "max": [
        0.9693626761436462,
        0.2876436114311218
      ],
      "min": [
        0.9555151462554932,
        0.2737376391887665
      ],
      "type": "VEC2"
    },
    {
      "bufferView": 1,
      "byteOffset": 206624,
      "componentType": 5126,
      "count": 48,
      "max": [
        0.9693626761436462,
        0.2876436114311218
      ],
      "min": [
        0.9555151462554932,
        0.2737376391887665
      ],
      "type": "VEC2"
    },
    {
      "bufferView": 0,
      "byteOffset": 114072,
      "componentType": 5125,
      "count": 246,
      "type": "SCALAR"
    },
    {
      "bufferView": 2,
      "byteOffset": 155256,
      "componentType": 5126,
      "count": 468,
      "max": [
        0.004340013954788446,
        0.014765857718884945,
        0.008426949381828308
      ],
      "min": [
        -0.17056290805339813,
        -0.01083880290389061,
        -0.004080325830727816
      ],
      "type": "VEC3"
    },
    {
      "bufferView": 2,
      "byteOffset": 160872,
      "componentType": 5126,
      "count": 468,
      "max": [
        0.9951568841934204,
        0.9999318718910217,
        0.9995578527450562
      ],
      "min": [
        -0.9797369837760925,
        -0.9991591572761536,
        -0.9980553984642029
      ],
      "type": "VEC3"
    },
    {
      "bufferView": 3,
      "byteOffset": 103504,
      "componentType": 5126,
      "count": 468,
      "max": [
        0.9861714243888855,
        0.9957787990570068,
        0.99983811378479,
        1.0
      ],
      "min": [
        -0.998989462852478,
        -0.9925297498703003,
        -0.9999756813049316,
        1.0
      ],
      "type": "VEC4"
    },
    {
      "bufferView": 1,
      "byteOffset": 207008,
      "componentType": 5126,
      "count": 468,
      "max": [
        0.9499214291572571,
        0.9746308922767639
      ],
      "min": [
        0.11991456151008606,
        0.16874803602695465
      ],
      "type": "VEC2"
    },
    {
      "bufferView": 1,
      "byteOffset": 210752,
      "componentType": 5126,
      "count": 468,
      "max": [
        0.9499214291572571,
        0.9746308922767639
      ],
      "min": [
        0.11991456151008606,
        0.16874803602695465
      ],
      "type": "VEC2"
    },
    {
      "bufferView": 1,
      "byteOffset": 214496,
      "componentType": 5126,
      "count": 468,
      "max": [
        0.9499214291572571,
        0.9746308922767639
      ],
      "min": [
        0.11991456151008606,
        0.16874803602695465
      ],
      "type": "VEC2"
    },
    {
      "bufferView": 1,
      "byteOffset": 218240,
      "componentType": 5126,
      "count": 468,
      "max": [
        0.9499214291572571,
        0.9746308922767639
      ],
      "min": [
        0.11991456151008606,
        0.16874803602695465
      ],
      "type": "VEC2"
    },
    {
      "bufferView": 0,
      "byteOffset": 115056,
      "componentType": 5125,
      "count": 2250,
      "type": "SCALAR"
    },
    {
      "bufferView": 2,
      "byteOffset": 166488,
      "componentType": 5126,
      "count": 118,
      "max": [
        0.0037475728895515203,
        0.010695296339690685,
        0.002552892779931426
      ],
      "min": [
        -0.0025110708083957434,
        -0.01566154696047306,
        -0.016881292685866356
      ],
      "type": "VEC3"
    },
    {
      "bufferView": 2,
      "byteOffset": 167904,
      "componentType": 5126,
      "count": 118,
      "max": [
        0.9999952912330627,
        0.979655385017395,
        0.10396125912666321
      ],
      "min": [
        -0.998084545135498,
        -0.9796486496925354,
        -0.9727172255516052
      ],
      "type": "VEC3"
    },
    {
      "bufferView": 3,
      "byteOffset": 110992,
      "componentType": 5126,
      "count": 118,
      "max": [
        0.9827154874801636,
        0.7132195830345154,
        0.7522775530815125,
        1.0
      ],
      "min": [
        -0.9880478978157043,
        -0.798234760761261,
        -0.9980832934379578,
        1.0
      ],
      "type": "VEC4"
    },
    {
      "bufferView": 1,
      "byteOffset": 221984,
      "componentType": 5126,
      "count": 118,
      "max": [
        0.9430599808692932,
        0.8769732713699341
      ],
      "min": [
        0.3509374260902405,
        0.000658282486256212
      ],
      "type": "VEC2"
    },
    {
      "bufferView": 1,
      "byteOffset": 222928,
      "componentType": 5126,
      "count": 118,
      "max": [
        0.9430599808692932,
        0.8769732713699341
      ],
      "min": [
        0.3509374260902405,
        0.000658282486256212
      ],
      "type": "VEC2"
    },
    {
      "bufferView": 1,
      "byteOffset": 223872,
      "componentType": 5126,
      "count": 118,
      "max": [
        0.9430599808692932,
        0.8769732713699341
      ],
      "min": [
        0.3509374260902405,
        0.000658282486256212
      ],
      "type": "VEC2"
    },
    {
      "bufferView": 1,
      "byteOffset": 224816,
      "componentType": 5126,
      "count": 118,
      "max": [
        0.9430599808692932,
        0.8769732713699341
      ],
      "min": [
        0.3509374260902405,
        0.000658282486256212
      ],
      "type": "VEC2"
    },
    {
      "bufferView": 0,
      "byteOffset": 124056,
      "componentType": 5125,
      "count": 492,
      "type": "SCALAR"
    },
    {
      "bufferView": 2,
      "byteOffset": 169320,
      "componentType": 5126,
      "count": 772,
      "max": [
        0.030626660212874413,
        0.05030239000916481,
        0.008534413762390614
      ],
      "min": [
        -0.13259965181350708,
        -0.007967064157128334,
        0.0003990631375927478
      ],
      "type": "VEC3"
    },
    {
      "bufferView": 2,
      "byteOffset": 178584,
      "componentType": 5126,
      "count": 772,
      "max": [
        0.9835036396980286,
        0.9944256544113159,
        1.0
      ],
      "min": [
        -0.9927684664726257,
        -0.9920901656150818,
        -1.0
      ],
      "type": "VEC3"
    },
    {
      "bufferView": 3,
      "byteOffset": 112880,
      "componentType": 5126,
      "count": 772,
      "max": [
        0.9996849894523621,
        0.9984255433082581,
        0.9994441270828247,
        1.0
      ],
      "min": [
        -0.966772198677063,
        -0.7343921065330505,
        -0.9981976747512817,
        1.0
      ],
      "type": "VEC4"
    },
    {
      "bufferView": 1,
      "byteOffset": 225760,
      "componentType": 5126,
      "count": 772,
      "max": [
        0.9816601276397705,
        0.9606058597564697
      ],
      "min": [
        0.5280239582061768,
        0.21943411231040955
      ],
      "type": "VEC2"
    },
    {
      "bufferView": 1,
      "byteOffset": 231936,
      "componentType": 5126,
      "count": 772,
      "max": [
        0.9816601276397705,
        0.9606058597564697
      ],
      "min": [
        0.5280239582061768,
        0.21943411231040955
      ],
      "type": "VEC2"
    },
    {
      "bufferView": 1,
      "byteOffset": 238112,
      "componentType": 5126,
      "count": 772,
      "max": [
        0.9816601276397705,
        0.9606058597564697
      ],
      "min": [
        0.5280239582061768,
        0.21943411231040955
      ],
      "type": "VEC2"
    },
    {
      "bufferView": 1,
      "byteOffset": 244288,
      "componentType": 5126,
      "count": 772,
      "max": [
        0.9816601276397705,
        0.9606058597564697
      ],
      "min": [
        0.5280239582061768,
        0.21943411231040955
      ],
      "type": "VEC2"
    },
    {
      "bufferView": 0,
      "byteOffset": 126024,
      "componentType": 5125,
      "count": 3456,
      "type": "SCALAR"
    },
    {
      "bufferView": 2,
      "byteOffset": 187848,
      "componentType": 5126,
      "count": 48,
      "max": [
        0.007344480603933334,
        0.007344480603933334,
        3.9294884013330034e-10
      ],
      "min": [
        -0.007344480603933334,
        -0.007344480603933334,
        -0.0030533033423125744
      ],
      "type": "VEC3"
    },
    {
      "bufferView": 2,
      "byteOffset": 188424,
      "componentType": 5126,
      "count": 48,
      "max": [
        0.8990697860717773,
        0.8990697264671326,
        -0.4093022048473358
      ],
      "min": [
        -0.8990700244903564,
        -0.8990698456764221,
        -0.9859956502914429
      ],
      "type": "VEC3"
    },
    {
      "bufferView": 3,
      "byteOffset": 125232,
      "componentType": 5126,
      "count": 48,
      "max": [
        -0.013110161758959293,
        0.9432608485221863,
        0.8905057907104492,
        1.0
      ],
      "min": [
        -0.5880391597747803,
        0.3313690721988678,
        -0.889427125453949,
        1.0
      ],
      "type": "VEC4"
    },
    {
      "bufferView": 1,
      "byteOffset": 250464,
      "componentType": 5126,
      "count": 48,
      "max": [
        0.8329482078552246,
        0.6916516423225403
      ],
      "min": [
        0.8100209832191467,
        0.6686305999755859
      ],
      "type": "VEC2"
    },
    {
      "bufferView": 1,
      "byteOffset": 250848,
      "componentType": 5126,
      "count": 48,
      "max": [
        0.8329482078552246,
        0.6916516423225403
      ],
      "min": [
        0.8100209832191467,
        0.6686305999755859
      ],
      "type": "VEC2"
    },
    {
      "bufferView": 1,
      "byteOffset": 251232,
      "componentType": 5126,
      "count": 48,
      "max": [
        0.8329482078552246,
        0.6916516423225403
      ],
      "min": [
        0.8100209832191467,
        0.6686305999755859
      ],
      "type": "VEC2"
    },
    {
      "bufferView": 1,
      "byteOffset": 251616,
      "componentType": 5126,
      "count": 48,
      "max": [
        0.8329482078552246,
        0.6916516423225403
      ],
      "min": [
        0.8100209832191467,
        0.6686305999755859
      ],
      "type": "VEC2"
    },
    {
      "bufferView": 0,
      "byteOffset": 139848,
      "componentType": 5125,
      "count": 246,
      "type": "SCALAR"
    },
    {
      "bufferView": 2,
      "byteOffset": 189000,
      "componentType": 5126,
      "count": 176,
      "max": [
        0.009714842773973942,
        0.011578772217035294,
        0.024814896285533905
      ],
      "min": [
        -0.014996412210166454,
        -0.02980601228773594,
        -0.024814896285533905
      ],
      "type": "VEC3"
    },
    {
      "bufferView": 2,
      "byteOffset": 191112,
      "componentType": 5126,
      "count": 176,
      "max": [
        0.9891659617424011,
        0.9901973009109497,
        0.9845830202102661
      ],
      "min": [
        -0.9789526462554932,
        -0.9794507026672363,
        -0.9840600490570068
      ],
      "type": "VEC3"
    },
    {
      "bufferView": 3,
      "byteOffset": 126000,
      "componentType": 5126,
      "count": 176,
      "max": [
        0.9921942949295044,
        0.6842950582504272,
        0.7033538818359375,
        1.0
      ],
      "min": [
        -0.7197036147117615,
        -0.8574866056442261,
        -0.996189534664154,
        1.0
      ],
      "type": "VEC4"
    },
    {
      "bufferView": 1,
      "byteOffset": 252000,
      "componentType": 5126,
      "count": 176,
      "max": [
        0.6732651591300964,
        0.9102351069450378
      ],
      "min": [
        0.37584900856018066,
        0.7593847513198853
      ],
      "type": "VEC2"
    },
    {
      "bufferView": 1,
      "byteOffset": 253408,
      "componentType": 5126,
      "count": 176,
      "max": [
        0.6732651591300964,
        0.9102351069450378
      ],
      "min": [
        0.37584900856018066,
        0.7593847513198853
      ],
      "type": "VEC2"
    },
    {
      "bufferView": 1,
      "byteOffset": 254816,
      "componentType": 5126,
      "count": 176,
      "max": [
        0.6732651591300964,
        0.9102351069450378
      ],
      "min": [
        0.37584900856018066,
        0.7593847513198853
      ],
      "type": "VEC2"
    },
    {
      "bufferView": 1,
      "byteOffset": 256224,
      "componentType": 5126,
      "count": 176,
      "max": [
        0.6732651591300964,
        0.9102351069450378
      ],
      "min": [
        0.37584900856018066,
        0.7593847513198853
      ],
      "type": "VEC2"
    },
    {
      "bufferView": 0,
      "byteOffset": 140832,
      "componentType": 5125,
      "count": 756,
      "type": "SCALAR"
    },
    {
      "bufferView": 2,
      "byteOffset": 193224,
      "componentType": 5126,
      "count": 306,
      "max": [
        0.4076709747314453,
        0.01953859254717827,
        0.024304384365677834
      ],
      "min": [
        0.3966788649559021,
        0.008546465076506138,
        -0.024304384365677834
      ],
      "type": "VEC3"
    },
    {
      "bufferView": 2,
      "byteOffset": 196896,
      "componentType": 5126,
      "count": 306,
      "max": [
        1.0,
        1.0,
        0.9507793188095093
      ],
      "min": [
        -1.0,
        -1.0,
        -0.9507790803909302
      ],
      "type": "VEC3"
    },
    {
      "bufferView": 3,
      "byteOffset": 128816,
      "componentType": 5126,
      "count": 306,
      "max": [
        1.0,
        1.0,
        0.9647301435470581,
        1.0
      ],
      "min": [
        -1.0,
        -0.9931907653808594,
        -0.9798681139945984,
        1.0
      ],
      "type": "VEC4"
    },
    {
      "bufferView": 1,
      "byteOffset": 257632,
      "componentType": 5126,
      "count": 306,
      "max": [
        0.9695366621017456,
        0.9680168032646179
      ],
      "min": [
        0.9456884264945984,
        0.0006582736968994141
      ],
      "type": "VEC2"
    },
    {
      "bufferView": 1,
      "byteOffset": 260080,
      "componentType": 5126,
      "count": 306,
      "max": [
        0.9695366621017456,
        0.9680168032646179
      ],
      "min": [
        0.9456884264945984,
        0.0006582736968994141
      ],
      "type": "VEC2"
    },
    {
      "bufferView": 1,
      "byteOffset": 262528,
      "componentType": 5126,
      "count": 306,
      "max": [
        0.9695366621017456,
        0.9680168032646179
      ],
      "min": [
        0.9456884264945984,
        0.0006582736968994141
      ],
      "type": "VEC2"
    },
    {
      "bufferView": 1,
      "byteOffset": 264976,
      "componentType": 5126,
      "count": 306,
      "max": [
        0.9695366621017456,
        0.9680168032646179
      ],
      "min": [
        0.9456884264945984,
        0.0006582736968994141
      ],
      "type": "VEC2"
    },
    {
      "bufferView": 0,
      "byteOffset": 143856,
      "componentType": 5125,
      "count": 1248,
      "type": "SCALAR"
    },
    {
      "bufferView": 2,
      "byteOffset": 200568,
      "componentType": 5126,
      "count": 146,
      "max": [
        0.011522042565047741,
        0.00931088998913765,
        0.0031757301185280085
      ],
      "min": [
        -0.010971231386065483,
        -0.00847056694328785,
        -0.0031757301185280085
      ],
      "type": "VEC3"
    },
    {
      "bufferView": 2,
      "byteOffset": 202320,
      "componentType": 5126,
      "count": 146,
      "max": [
        0.9792320132255554,
        0.895041823387146,
        0.9927225708961487
      ],
      "min": [
        -0.9805595278739929,
        -0.9695921540260315,
        -0.9927225112915039
      ],
      "type": "VEC3"
    },
    {
      "bufferView": 3,
      "byteOffset": 133712,
      "componentType": 5126,
      "count": 146,
      "max": [
        0.9783962965011597,
        0.9970772862434387,
        0.6866641640663147,
        1.0
      ],
      "min": [
        -0.9747170209884644,
        -0.9440800547599792,
        -0.9982343316078186,
        1.0
      ],
      "type": "VEC4"
    },
    {
      "bufferView": 1,
      "byteOffset": 267424,
      "componentType": 5126,
      "count": 146,
      "max": [
        0.9747439026832581,
        0.7563324570655823
      ],
      "min": [
        0.6845191121101379,
        0.18557003140449524
      ],
      "type": "VEC2"
    },
    {
      "bufferView": 1,
      "byteOffset": 268592,
      "componentType": 5126,
      "count": 146,
      "max": [
        0.9747439026832581,
        0.7563324570655823
      ],
      "min": [
        0.6845191121101379,
        0.18557003140449524
      ],
      "type": "VEC2"
    },
    {
      "bufferView": 1,
      "byteOffset": 269760,
      "componentType": 5126,
      "count": 146,
      "max": [
        0.9747439026832581,
        0.7563324570655823
      ],
      "min": [
        0.6845191121101379,
        0.18557003140449524
      ],
      "type": "VEC2"
    },
    {
      "bufferView": 1,
      "byteOffset": 270928,
      "componentType": 5126,
      "count": 146,
      "max": [
        0.9747439026832581,
        0.7563324570655823
      ],
      "min": [
        0.6845191121101379,
        0.18557003140449524
      ],
      "type": "VEC2"
    },
    {
      "bufferView": 0,
      "byteOffset": 148848,
      "componentType": 5125,
      "count": 594,
      "type": "SCALAR"
    }
  ],
  "asset": {
    "extras": {
      "author": "LukasSI (https://sketchfab.com/LukasSI)",
      "license": "CC-BY-4.0 (http://creativecommons.org/licenses/by/4.0/)",
      "source": "https://sketchfab.com/3d-models/o-zutsu-teppo-feudal-japanese-hand-cannon-a8767054fa40471ea451ec651335c58c",
      "title": "O-zutsu Teppo | Feudal Japanese Hand Cannon |"
    },
    "generator": "Sketchfab-15.37.0",
    "version": "2.0"
  },
  "bufferViews": [
    {
      "buffer": 0,
      "byteLength": 151224,
      "name": "floatBufferViews",
      "target": 34963
    },
    {
      "buffer": 0,
      "byteLength": 272096,
      "byteOffset": 151224,
      "byteStride": 8,
      "name": "floatBufferViews",
      "target": 34962
    },
    {
      "buffer": 0,
      "byteLength": 204072,
      "byteOffset": 423320,
      "byteStride": 12,
      "name": "floatBufferViews",
      "target": 34962
    },
    {
      "buffer": 0,
      "byteLength": 136048,
      "byteOffset": 627392,
      "byteStride": 16,
      "name": "floatBufferViews",
      "target": 34962
    }
  ],
  "buffers": [
    {
      "byteLength": 763440,
      "uri": "scene.bin"
    }
  ],
  "images": [
    {
      "uri": "textures/OzutsuMat_baseColor.png"
    },
    {
      "uri": "textures/OzutsuMat_metallicRoughness.png"
    },
    {
      "uri": "textures/OzutsuMat_normal.png"
    }
  ],
  "materials": [
    {
      "doubleSided": true,
      "name": "OzutsuMat",
      "normalTexture": {
        "index": 2
      },
      "pbrMetallicRoughness": {
        "baseColorTexture": {
          "index": 0
        },
        "metallicRoughnessTexture": {
          "index": 1
        }
      }
    }
  ],
  "meshes": [
    {
      "name": "Object_0",
      "primitives": [
        {
          "attributes": {
            "NORMAL": 1,
            "POSITION": 0,
            "TANGENT": 2,
            "TEXCOORD_0": 3,
            "TEXCOORD_1": 4,
            "TEXCOORD_2": 5,
            "TEXCOORD_3": 6
          },
          "indices": 7,
          "material": 0,
          "mode": 4
        }
      ]
    },
    {
      "name": "Object_1",
      "primitives": [
        {
          "attributes": {
            "NORMAL": 9,
            "POSITION": 8,
            "TANGENT": 10,
            "TEXCOORD_0": 11,
            "TEXCOORD_1": 12,
            "TEXCOORD_2": 13,
            "TEXCOORD_3": 14
          },
          "indices": 15,
          "material": 0,
          "mode": 4
        }
      ]
    },
    {
      "name": "Object_2",
      "primitives": [
        {
          "attributes": {
            "NORMAL": 17,
            "POSITION": 16,
            "TANGENT": 18,
            "TEXCOORD_0": 19,
            "TEXCOORD_1": 20,
            "TEXCOORD_2": 21,
            "TEXCOORD_3": 22
          },
          "indices": 23,
          "material": 0,
          "mode": 4
        }
      ]
    },
    {
      "name": "Object_3",
      "primitives": [
        {
          "attributes": {
            "NORMAL": 25,
            "POSITION": 24,
            "TANGENT": 26,
            "TEXCOORD_0": 27,
            "TEXCOORD_1": 28,
            "TEXCOORD_2": 29,
            "TEXCOORD_3": 30
          },
          "indices": 31,
          "material": 0,
          "mode": 4
        }
      ]
    },
    {
      "name": "Object_4",
      "primitives": [
        {
          "attributes": {
            "NORMAL": 33,
            "POSITION": 32,
            "TANGENT": 34,
            "TEXCOORD_0": 35,
            "TEXCOORD_1": 36,
            "TEXCOORD_2": 37,
            "TEXCOORD_3": 38
          },
          "indices": 39,
          "material": 0,
          "mode": 4
        }
      ]
    },
    {
      "name": "Object_5",
      "primitives": [
        {
          "attributes": {
            "NORMAL": 41,
            "POSITION": 40,
            "TANGENT": 42,
            "TEXCOORD_0": 43,
            "TEXCOORD_1": 44,
            "TEXCOORD_2": 45,
            "TEXCOORD_3": 46
          },
          "indices": 47,
          "material": 0,
          "mode": 4
        }
      ]
    },
    {
      "name": "Object_6",
      "primitives": [
        {
          "attributes": {
            "NORMAL": 49,
            "POSITION": 48,
            "TANGENT": 50,
            "TEXCOORD_0": 51,
            "TEXCOORD_1": 52,
            "TEXCOORD_2": 53,
            "TEXCOORD_3": 54
          },
          "indices": 55,
          "material": 0,
          "mode": 4
        }
      ]
    },
    {
      "name": "Object_7",
      "primitives": [
        {
          "attributes": {
            "NORMAL": 57,
            "POSITION": 56,
            "TANGENT": 58,
            "TEXCOORD_0": 59,
            "TEXCOORD_1": 60,
            "TEXCOORD_2": 61,
            "TEXCOORD_3": 62
          },
          "indices": 63,
          "material": 0,
          "mode": 4
        }
      ]
    },
    {
      "name": "Object_8",
      "primitives": [
        {
          "attributes": {
            "NORMAL": 65,
            "POSITION": 64,
            "TANGENT": 66,
            "TEXCOORD_0": 67,
            "TEXCOORD_1": 68,
            "TEXCOORD_2": 69,
            "TEXCOORD_3": 70
          },
          "indices": 71,
          "material": 0,
          "mode": 4
        }
      ]
    },
    {
      "name": "Object_9",
      "primitives": [
        {
          "attributes": {
            "NORMAL": 73,
            "POSITION": 72,
            "TANGENT": 74,
            "TEXCOORD_0": 75,
            "TEXCOORD_1": 76,
            "TEXCOORD_2": 77,
            "TEXCOORD_3": 78
          },
          "indices": 79,
          "material": 0,
          "mode": 4
        }
      ]
    },
    {
      "name": "Object_10",
      "primitives": [
        {
          "attributes": {
            "NORMAL": 81,
            "POSITION": 80,
            "TANGENT": 82,
            "TEXCOORD_0": 83,
            "TEXCOORD_1": 84,
            "TEXCOORD_2": 85,
            "TEXCOORD_3": 86
          },
          "indices": 87,
          "material": 0,
          "mode": 4
        }
      ]
    },
    {
      "name": "Object_11",
      "primitives": [
        {
          "attributes": {
            "NORMAL": 89,
            "POSITION": 88,
            "TANGENT": 90,
            "TEXCOORD_0": 91,
            "TEXCOORD_1": 92,
            "TEXCOORD_2": 93,
            "TEXCOORD_3": 94
          },
          "indices": 95,
          "material": 0,
          "mode": 4
        }
      ]
    },
    {
      "name": "Object_12",
      "primitives": [
        {
          "attributes": {
            "NORMAL": 97,
            "POSITION": 96,
            "TANGENT": 98,
            "TEXCOORD_0": 99,
            "TEXCOORD_1": 100,
            "TEXCOORD_2": 101,
            "TEXCOORD_3": 102
          },
          "indices": 103,
          "material": 0,
          "mode": 4
        }
      ]
    },
    {
      "name": "Object_13",
      "primitives": [
        {
          "attributes": {
            "NORMAL": 105,
            "POSITION": 104,
            "TANGENT": 106,
            "TEXCOORD_0": 107,
            "TEXCOORD_1": 108,
            "TEXCOORD_2": 109,
            "TEXCOORD_3": 110
          },
          "indices": 111,
          "material": 0,
          "mode": 4
        }
      ]
    },
    {
      "name": "Object_14",
      "primitives": [
        {
          "attributes": {
            "NORMAL": 113,
            "POSITION": 112,
            "TANGENT": 114,
            "TEXCOORD_0": 115,
            "TEXCOORD_1": 116,
            "TEXCOORD_2": 117,
            "TEXCOORD_3": 118
          },
          "indices": 119,
          "material": 0,
          "mode": 4
        }
      ]
    },
    {
      "name": "Object_15",
      "primitives": [
        {
          "attributes": {
            "NORMAL": 121,
            "POSITION": 120,
            "TANGENT": 122,
            "TEXCOORD_0": 123,
            "TEXCOORD_1": 124,
            "TEXCOORD_2": 125,
            "TEXCOORD_3": 126
          },
          "indices": 127,
          "material": 0,
          "mode": 4
        }
      ]
    },
    {
      "name": "Object_16",
      "primitives": [
        {
          "attributes": {
            "NORMAL": 129,
            "POSITION": 128,
            "TANGENT": 130,
            "TEXCOORD_0": 131,
            "TEXCOORD_1": 132,
            "TEXCOORD_2": 133,
            "TEXCOORD_3": 134
          },
          "indices": 135,
          "material": 0,
          "mode": 4
        }
      ]
    },
    {
      "name": "Object_17",
      "primitives": [
        {
          "attributes": {
            "NORMAL": 137,
            "POSITION": 136,
            "TANGENT": 138,
            "TEXCOORD_0": 139,
            "TEXCOORD_1": 140,
            "TEXCOORD_2": 141,
            "TEXCOORD_3": 142
          },
          "indices": 143,
          "material": 0,
          "mode": 4
        }
      ]
    },
    {
      "name": "Object_18",
      "primitives": [
        {
          "attributes": {
            "NORMAL": 145,
            "POSITION": 144,
            "TANGENT": 146,
            "TEXCOORD_0": 147,
            "TEXCOORD_1": 148,
            "TEXCOORD_2": 149,
            "TEXCOORD_3": 150
          },
          "indices": 151,
          "material": 0,
          "mode": 4
        }
      ]
    }
  ],
  "nodes": [
    {
      "children": [
        1
      ],
      "matrix": [
        1.0,
        0.0,
        0.0,
        0.0,
        0.0,
        2.220446049250313e-16,
        -1.0,
        0.0,
        0.0,
        1.0,
        2.220446049250313e-16,
        0.0,
        0.0,
        0.0,
        0.0,
        1.0
      ],
      "name": "Sketchfab_model"
    },
    {
      "children": [
        2
      ],
      "name": "root"
    },
    {
      "children": [
        3,
        5,
        7,
        9,
        11,
        13,
        15,
        17,
        19,
        21,
        23,
        25,
        27,
        29,
        31,
        33,
        35,
        37,
        39
      ],
      "matrix": [
        1.0,
        0.0,
        0.0,
        0.0,
        0.0,
        2.220446049250313e-16,
        1.0,
        0.0,
        0.0,
        -1.0,
        2.220446049250313e-16,
        0.0,
        0.0,
        0.0,
        0.0,
        1.0
      ],
      "name": "GLTF_SceneRootNode"
    },
    {
      "children": [
        4
      ],
      "matrix": [
        1.0,
        0.0,
        0.0,
        0.0,
        0.0,
        1.0,
        0.0,
        0.0,
        0.0,
        0.0,
        1.0,
        0.0,
        -0.004265710711479187,
        0.002185898832976818,
        0.0,
        1.0
      ],
      "name": "Cylinder_0"
    },
    {
      "mesh": 0,
      "name": "Object_4"
    },
    {
      "children": [
        6
      ],
      "matrix": [
        1.0,
        0.0,
        0.0,
        0.0,
        0.0,
        1.0,
        0.0,
        0.0,
        0.0,
        0.0,
        1.0,
        0.0,
        -0.004265710711479187,
        0.002185898832976818,
        0.0,
        1.0
      ],
      "name": "Cube_1"
    },
    {
      "mesh": 1,
      "name": "Object_6"
    },
    {
      "children": [
        8
      ],
      "matrix": [
        1.0,
        0.0,
        0.0,
        0.0,
        0.0,
        1.0,
        0.0,
        0.0,
        0.0,
        0.0,
        1.0,
        0.0,
        -0.004265710711479187,
        0.002185898832976818,
        0.0,
        1.0
      ],
      "name": "Cube.001_2"
    },
    {
      "mesh": 2,
      "name": "Object_8"
    },
    {
      "children": [
        10
      ],
      "matrix": [
        1.0,
        0.0,
        0.0,
        0.0,
        0.0,
        1.0,
        0.0,
        0.0,
        0.0,
        0.0,
        1.0,
        0.0,
        0.1923195719718933,
        -0.004367128945887089,
        0.0,
        1.0
      ],
      "name": "Cube.002_3"
    },
    {
      "mesh": 3,
      "name": "Object_10"
    },
    {
      "children": [
        12
      ],
      "matrix": [
        1.0,
        0.0,
        0.0,
        0.0,
        0.0,
        1.0,
        0.0,
        0.0,
        0.0,
        0.0,
        1.0,
        0.0,
        0.17004907131195068,
        0.024090047925710678,
        -0.020664751529693604,
        1.0
      ],
      "name": "Cube.003_4"
    },
    {
      "mesh": 4,
      "name": "Object_12"
    },
    {
      "children": [
        14
      ],
      "matrix": [
        1.0,
        0.0,
        0.0,
        0.0,
        0.0,
        1.0,
        0.0,
        0.0,
        0.0,
        0.0,
        1.0,
        0.0,
        0.2110619843006134,
        -0.004367128945887089,
        0.0,
        1.0
      ],
      "name": "Cube.004_5"
    },
    {
      "mesh": 5,
      "name": "Object_14"
    },
    {
      "children": [
        16
      ],
      "matrix": [
        1.0,
        0.0,
        0.0,
        0.0,
        0.0,
        1.0,
        0.0,
        0.0,
        0.0,
        0.0,
        1.0,
        0.0,
        0.09188833832740784,
        0.017033429816365242,
        -0.03178658336400986,
        1.0
      ],
      "name": "Cube.006_6"
    },
    {
      "mesh": 6,
      "name": "Object_16"
    },
    {
      "children": [
        18
      ],
      "matrix": [
        1.0,
        0.0,
        0.0,
        0.0,
        0.0,
        1.0,
        0.0,
        0.0,
        0.0,
        0.0,
        1.0,
        0.0,
        0.09304484724998474,
        0.017209045588970184,
        -0.03206205368041992,
        1.0
      ],
      "name": "Cylinder.001_7"
    },
    {
      "mesh": 7,
      "name": "Object_18"
    },
    {
      "children": [
        20
      ],
      "matrix": [
        1.0,
        0.0,
        0.0,
        0.0,
        0.0,
        1.0,
        0.0,
        0.0,
        0.0,
        0.0,
        1.0,
        0.0,
        0.20949164032936096,
        0.007801436819136143,
        -0.023879017680883408,
        1.0
      ],
      "name": "Plane_8"
    },
    {
      "mesh": 8,
      "name": "Object_20"
    },
    {
      "children": [
        22
      ],
      "matrix": [
        1.0,
        0.0,
        0.0,
        0.0,
        0.0,
        1.0,
        0.0,
        0.0,
        0.0,
        0.0,
        1.0,
        0.0,
        0.17936459183692932,
        0.025166772305965424,
        -0.023575618863105774,
        1.0
      ],
      "name": "Cylinder.002_9"
    },
    {
      "mesh": 9,
      "name": "Object_22"
    },
    {
      "children": [
        24
      ],
      "matrix": [
        1.0,
        0.0,
        0.0,
        0.0,
        0.0,
        1.0,
        0.0,
        0.0,
        0.0,
        0.0,
        1.0,
        0.0,
        0.3405954837799072,
        0.0071573397144675255,
        -0.02495238557457924,
        1.0
      ],
      "name": "Sphere_10"
    },
    {
      "mesh": 10,
      "name": "Object_24"
    },
    {
      "children": [
        26
      ],
      "matrix": [
        0.9846031244052866,
        0.0,
        0.17480471221150667,
        0.0,
        0.0,
        1.0,
        0.0,
        0.0,
        -0.17480471221150667,
        -0.0,
        0.9846031244052866,
        0.0,
        0.4400193691253662,
        -0.012116704136133194,
        -0.022676870226860046,
        1.0
      ],
      "name": "Sphere.001_11"
    },
    {
      "mesh": 11,
      "name": "Object_26"
    },
    {
      "children": [
        28
      ],
      "matrix": [
        1.0,
        0.0,
        0.0,
        0.0,
        0.0,
        1.0,
        0.0,
        0.0,
        0.0,
        0.0,
        1.0,
        0.0,
        0.2851915955543518,
        -0.012899115681648254,
        -0.02999851107597351,
        1.0
      ],
      "name": "Cube.007_12"
    },
    {
      "mesh": 12,
      "name": "Object_28"
    },
    {
      "children": [
        30
      ],
      "matrix": [
        1.0,
        0.0,
        0.0,
        0.0,
        0.0,
        1.0,
        0.0,
        0.0,
        0.0,
        0.0,
        1.0,
        0.0,
        0.14557984471321106,
        0.02642556093633175,
        -0.024668030440807343,
        1.0
      ],
      "name": "Cube.008_13"
    },
    {
      "mesh": 13,
      "name": "Object_30"
    },
    {
      "children": [
        32
      ],
      "matrix": [
        1.0,
        0.0,
        0.0,
        0.0,
        0.0,
        1.0,
        0.0,
        0.0,
        0.0,
        0.0,
        1.0,
        0.0,
        0.25065892934799194,
        0.006040667183697224,
        -0.03355523943901062,
        1.0
      ],
      "name": "Cube.009_14"
    },
    {
      "mesh": 14,
      "name": "Object_32"
    },
    {
      "children": [
        34
      ],
      "matrix": [
        1.0,
        0.0,
        0.0,
        0.0,
        0.0,
        1.0,
        0.0,
        0.0,
        0.0,
        0.0,
        1.0,
        0.0,
        0.2346389889717102,
        0.007813354954123497,
        -0.031349316239356995,
        1.0
      ],
      "name": "Sphere.002_15"
    },
    {
      "mesh": 15,
      "name": "Object_34"
    },
    {
      "children": [
        36
      ],
      "matrix": [
        1.0,
        0.0,
        0.0,
        0.0,
        0.0,
        1.0,
        0.0,
        0.0,
        0.0,
        0.0,
        0.5614265203475952,
        0.0,
        0.5110410451889038,
        -0.011503402143716812,
        0.0,
        1.0
      ],
      "name": "Cube.010_16"
    },
    {
      "mesh": 16,
      "name": "Object_36"
    },
    {
      "children": [
        38
      ],
      "matrix": [
        1.0,
        0.0,
        0.0,
        0.0,
        0.0,
        1.0,
        0.0,
        0.0,
        0.0,
        0.0,
        1.0,
        0.0,
        -0.004265710711479187,
        0.002185898832976818,
        0.0,
        1.0
      ],
      "name": "Cylinder.003_17"
    },
    {
      "mesh": 17,
      "name": "Object_38"
    },
    {
      "children": [
        40
      ],
      "matrix": [
        1.0,
        0.0,
        0.0,
        0.0,
        0.0,
        1.0,
        0.0,
        0.0,
        0.0,
        0.0,
        1.0,
        0.0,
        0.39360272884368896,
        -0.026962779462337494,
        0.0,
        1.0
      ],
      "name": "Cube.005_18"
    },
    {
      "mesh": 18,
      "name": "Object_40"
    }
  ],
  "samplers": [
    {
      "magFilter": 9729,
      "minFilter": 9987,
      "wrapS": 10497,
      "wrapT": 10497
    }
  ],
  "scene": 0,
  "scenes": [
    {
      "name": "Sketchfab_Scene",
      "nodes": [
        0
      ]
    }
  ],
  "textures": [
    {
      "sampler": 0,
      "source": 0
    },
    {
      "sampler": 0,
      "source": 1
    },
    {
      "sampler": 0,
      "source": 2
    }
  ]
}
